<?xml version="1.0" standalone="no"?>
<!DOCTYPE svg PUBLIC "-//W3C//DTD SVG 20010904//EN"
 "http://www.w3.org/TR/2001/REC-SVG-20010904/DTD/svg10.dtd">
<svg version="1.0" xmlns="http://www.w3.org/2000/svg"
 width="282.000000pt" height="117.000000pt" viewBox="0 0 282.000000 117.000000"
 preserveAspectRatio="xMidYMid meet">
<metadata>
Created by potrace 1.10, written by Peter Selinger 2001-2011
</metadata>
<g transform="translate(0.000000,117.000000) scale(0.100000,-0.100000)"
fill="#000000" stroke="none">
<path d="M1320 915 l-13 -45 -53 0 c-52 0 -53 -1 -65 -37 -11 -34 -10 -38 12
-52 63 -43 64 -43 46 -93 -15 -45 -15 -47 7 -67 29 -27 40 -26 81 5 37 28 61
26 90 -6 23 -25 43 -25 71 1 21 19 21 22 7 67 -15 51 -14 52 51 97 16 12 17
18 6 49 -11 35 -13 36 -64 36 l-53 0 -13 45 c-12 44 -13 45 -55 45 -42 0 -43
-1 -55 -45z m50 31 c0 -2 7 -20 15 -40 10 -24 12 -36 4 -36 -6 0 -13 9 -16 20
-9 34 -20 23 -39 -40 -17 -53 -34 -78 -34 -50 0 29 46 150 57 150 7 0 13 -2
13 -4z m46 -40 c10 -27 10 -36 2 -34 -6 2 -17 21 -24 42 -10 27 -10 36 -2 34
6 -2 17 -21 24 -42z m-49 -53 c-9 -47 -27 -84 -36 -79 -11 7 19 106 32 106 5
0 7 -12 4 -27z m168 -5 c2 -2 6 -14 9 -28 5 -21 0 -29 -29 -48 -44 -28 -46
-12 -2 22 17 14 28 26 24 26 -5 0 -20 -9 -34 -20 -15 -11 -29 -18 -32 -14 -3
3 5 14 18 25 26 21 27 21 -51 19 -49 -1 -58 1 -58 16 0 15 9 16 76 11 42 -3
77 -7 79 -9z m-240 -8 c-8 -12 -85 -10 -85 2 0 4 21 8 46 8 28 0 43 -4 39 -10z
m-27 -27 c-39 -6 -35 -19 17 -55 43 -30 56 -48 36 -48 -5 0 -11 -13 -13 -30
-3 -16 -1 -30 2 -30 4 0 28 16 53 35 48 37 57 41 57 26 0 -14 -130 -102 -140
-96 -6 3 -1 28 9 55 10 27 16 51 13 54 -9 9 -24 7 -18 -2 7 -12 -15 -82 -26
-82 -11 0 -10 11 6 58 l15 41 -39 28 c-54 38 -52 53 8 52 29 -1 36 -4 20 -6z
m57 -45 c32 -21 45 -38 28 -38 -8 0 -83 51 -83 56 0 10 24 2 55 -18z m73 5 c5
-17 -26 -29 -40 -15 -6 6 -7 15 -3 22 9 14 37 9 43 -7z m44 -34 c21 -63 2 -61
-22 4 -13 34 -15 47 -6 47 7 0 19 -23 28 -51z m38 -20 c12 -39 18 -75 13 -79
-4 -4 -26 4 -48 18 -24 15 -35 27 -27 30 8 2 19 -1 25 -7 6 -6 16 -11 23 -11
8 0 6 15 -7 50 -21 57 -23 70 -9 70 5 0 19 -32 30 -71z m-70 21 c0 -5 -20 -23
-45 -40 -54 -37 -60 -24 -7 19 39 32 52 37 52 21z m30 -92 c29 -21 39 -38 23
-38 -5 0 -24 14 -43 30 -40 34 -24 41 20 8z"/>
<path d="M214 535 c-6 -16 2 -35 16 -35 5 0 7 7 3 17 -5 13 -2 15 18 10 13 -4
27 -7 31 -7 10 0 -30 -122 -46 -138 -12 -12 -18 -13 -30 -3 -17 14 -11 41 10
41 8 0 14 5 14 10 0 15 -26 12 -40 -4 -6 -8 -10 -25 -8 -38 2 -19 9 -23 38
-23 35 0 35 1 59 72 22 67 25 72 55 75 20 2 32 9 34 21 3 16 1 17 -17 5 -16
-10 -29 -10 -66 0 -58 15 -64 15 -71 -3z"/>
<path d="M511 513 c-6 -21 -11 -42 -11 -48 0 -5 -10 -30 -22 -55 -20 -43 -21
-44 -28 -20 -4 14 -3 31 3 37 13 18 1 43 -22 43 -27 0 -31 -20 -13 -52 13 -22
14 -30 4 -40 -10 -10 -14 -8 -19 11 l-6 24 -19 -24 -20 -24 5 35 c3 19 8 43
12 53 6 14 2 17 -23 17 -27 0 -32 -5 -47 -44 -10 -25 -15 -49 -11 -54 3 -5 46
-10 96 -10 90 -2 91 -1 102 26 l11 27 6 -25 c9 -32 48 -34 69 -2 9 13 10 22 4
22 -6 0 -16 -9 -22 -20 -21 -39 -51 -1 -34 44 5 13 9 14 20 5 11 -9 14 -8 14
6 0 13 -6 16 -25 13 -14 -3 -25 -4 -25 -3 0 1 7 19 15 38 17 42 19 57 5 57 -5
0 -14 -17 -19 -37z m-161 -77 c0 -24 -19 -66 -30 -66 -13 0 -13 21 0 54 10 28
30 35 30 12z"/>
<path d="M858 499 l-36 -51 -7 47 c-4 25 -11 43 -15 38 -4 -4 -18 -39 -30 -78
-24 -73 -34 -87 -57 -78 -18 7 -16 30 4 42 25 14 9 25 -16 11 -38 -20 -20 -70
25 -70 28 0 39 14 57 75 l15 50 8 -34 7 -35 34 40 33 39 -15 -44 c-8 -24 -15
-54 -15 -66 0 -22 4 -23 70 -23 l69 0 14 41 c19 57 36 59 34 5 l-2 -43 70 -1
c103 -2 104 -3 57 -24 -52 -24 -56 -55 -7 -55 24 0 33 6 45 32 17 37 37 46 99
47 43 1 45 2 58 44 8 23 21 42 29 42 17 0 17 2 -1 -50 -10 -29 -11 -40 -3 -38
6 2 16 22 22 43 16 55 35 57 33 3 l-2 -43 66 -1 66 -1 14 40 c20 58 38 59 32
2 l-6 -45 46 0 c37 0 49 4 57 21 17 30 2 38 -19 10 -25 -33 -30 -15 -14 42 10
32 20 47 31 47 13 0 14 2 4 9 -9 5 -11 17 -6 36 5 20 4 26 -5 21 -6 -4 -11
-13 -11 -21 0 -7 -6 -20 -12 -27 -7 -7 -14 -26 -15 -43 -3 -44 -24 -88 -36
-76 -6 6 -6 20 1 40 9 27 8 33 -10 45 -26 19 -35 14 -43 -23 -6 -28 -39 -71
-54 -71 -5 0 -14 7 -21 15 -10 12 -10 15 2 15 22 0 51 37 45 55 -12 29 -38 15
-58 -30 -28 -64 -42 -67 -37 -9 l3 49 -36 1 c-20 1 -41 4 -46 7 -6 4 -15 -12
-22 -33 -12 -41 -52 -77 -71 -65 -15 9 -12 25 5 25 22 0 51 48 37 62 -18 18
-42 1 -62 -47 -11 -25 -24 -45 -30 -45 -13 0 -13 -1 5 50 8 23 15 44 15 46 0
2 -14 4 -30 4 -23 0 -33 -6 -40 -25 -6 -14 -14 -37 -20 -51 -17 -44 -30 -17
-15 32 l13 45 -31 -3 c-27 -3 -34 -9 -47 -44 -8 -23 -19 -41 -25 -40 -5 0 -9
3 -9 6 16 57 15 70 -8 79 -24 9 -28 4 -59 -77 -16 -42 -29 -14 -13 30 18 52
19 50 -18 46 -26 -3 -33 -9 -45 -43 -7 -22 -17 -43 -22 -48 -20 -20 -18 12 5
83 13 41 24 78 24 83 0 18 -18 3 -52 -44z m92 -63 c0 -24 -19 -66 -30 -66 -13
0 -13 21 0 54 10 28 30 35 30 12z m180 0 c0 -24 -19 -66 -30 -66 -13 0 -13 36
0 61 12 22 30 25 30 5z m90 -5 c0 -25 -39 -74 -40 -49 0 25 18 68 30 68 5 0
10 -9 10 -19z m-44 -129 c-11 -12 -19 -13 -27 -5 -8 8 -4 15 13 27 28 20 39 3
14 -22z"/>
<path d="M1876 531 c-19 -21 -14 -41 10 -41 11 0 13 -7 8 -27 -18 -72 -34 -96
-61 -86 -18 7 -16 30 4 42 21 11 13 24 -10 15 -22 -8 -31 -42 -16 -60 17 -21
62 -14 74 13 7 17 15 20 36 16 56 -11 95 97 47 131 -31 22 -71 20 -92 -3z m87
-22 c28 -39 -7 -101 -48 -86 -11 5 -15 13 -10 25 12 32 18 78 7 63 -11 -15
-36 -6 -27 10 11 17 63 10 78 -12z"/>
<path d="M2016 469 c-14 -44 -23 -86 -20 -94 4 -10 27 -13 85 -12 43 0 82 -3
86 -6 3 -4 -5 -7 -19 -7 -28 0 -66 -34 -49 -44 5 -4 15 3 21 14 8 15 17 19 34
14 19 -4 25 -1 30 20 7 28 25 33 57 14 17 -11 22 -10 38 10 10 14 25 22 36 20
13 -2 21 5 25 22 3 14 13 26 22 28 13 3 15 -5 11 -42 -5 -44 -4 -46 19 -46 21
0 28 8 42 45 10 25 24 45 31 45 12 0 12 -7 0 -41 -18 -49 -18 -49 -6 -49 5 0
15 19 23 42 19 60 40 63 32 4 -6 -44 -6 -46 19 -46 23 0 37 16 37 43 0 7 -9 1
-19 -12 -22 -29 -35 -14 -21 25 14 37 5 58 -21 51 -12 -3 -31 -2 -44 3 -21 8
-25 4 -42 -41 -10 -28 -23 -49 -28 -47 -11 3 -11 9 -1 54 6 29 6 30 -29 30
-25 0 -35 -4 -35 -16 0 -16 -18 -40 -30 -40 -4 0 -5 14 -2 30 7 46 -27 40 -56
-10 -20 -35 -42 -53 -42 -34 0 29 26 84 39 84 12 0 13 2 3 8 -7 5 -10 16 -6
25 7 20 16 21 33 5 10 -11 12 -9 9 7 -5 30 -40 25 -56 -7 -19 -40 -43 -37 -35
4 4 22 3 29 -5 24 -7 -4 -12 -16 -12 -26 0 -10 -8 -24 -17 -29 -11 -7 -13 -11
-5 -11 14 0 11 -15 -14 -77 -21 -48 -35 -31 -19 22 l14 45 -30 0 c-23 0 -32
-6 -40 -27 -6 -16 -15 -39 -20 -52 -7 -17 -13 -21 -20 -14 -10 10 4 66 39 161
2 6 -1 12 -7 12 -5 0 -21 -36 -35 -81z m181 -16 c-9 -47 -26 -83 -38 -83 -7 0
-9 10 -6 28 9 46 26 82 38 82 7 0 9 -10 6 -27z m-97 -17 c0 -24 -19 -66 -30
-66 -13 0 -13 21 0 54 10 28 30 35 30 12z m166 -52 c-5 -13 -10 -14 -18 -6 -6
6 -8 18 -4 28 5 13 10 14 18 6 6 -6 8 -18 4 -28z"/>
</g>
</svg>
